<?xml version="1.0" encoding="UTF-8"?>
<svg id="Layer_1" xmlns="http://www.w3.org/2000/svg" version="1.1" viewBox="0 0 960 560">
  <!-- Generator: Adobe Illustrator 30.1.0, SVG Export Plug-In . SVG Version: 2.1.1 Build 136)  -->
  <defs>
    <style>
      .st0 {
        fill: #a78343;
      }

      .st1 {
        fill: #fff;
      }
    </style>
  </defs>
  <rect x="0" width="960" height="560"/>
  <g>
    <path class="st0" d="M318.31,244.51c0,.98-.16,1.79-.44,2.49-.26.66-.63,1.25-1.12,1.79-.91,1.02-2.3,1.91-4.08,2.66-1.56.66-3.41,1.21-5.45,1.71-3.57.87-7.71,1.55-11.91,2.43-3.15.66-6.35,1.43-9.4,2.49-2.28.79-4.49,1.75-6.52,2.96-3.04,1.81-5.71,4.21-7.59,7.43-.45.77-.86,1.6-1.22,2.46-.18-.44-.37-.87-.57-1.28-1.3-2.62-3.1-4.76-5.2-6.49-1.84-1.52-3.92-2.73-6.12-3.72-3.85-1.74-8.1-2.84-12.29-3.74-3.14-.67-6.26-1.22-9.14-1.81-2.16-.44-4.2-.91-6-1.46-1.36-.41-2.58-.87-3.64-1.38-.79-.38-1.49-.8-2.08-1.25-.89-.67-1.54-1.4-1.98-2.24-.44-.84-.69-1.81-.69-3.05h-3.46c0,4.52.68,8.18,1.95,11.15,1.1,2.6,2.66,4.66,4.5,6.26,1.06.92,2.2,1.68,3.4,2.33.09,2.45.49,4.44,1.19,6.08.7,1.64,1.73,2.92,2.93,3.84,1.05.81,2.22,1.35,3.4,1.74,2.07.68,4.22.95,6.24,1.34,1.52.29,2.96.63,4.25,1.18.96.41,1.84.93,2.63,1.64.59.53,1.15,1.17,1.65,1.96.76,1.2,1.41,2.76,1.88,4.85.47,2.09.74,4.7.74,7.93v1.06l7.34,3.7v9.84l9.08,4.59,9.07-4.59v-9.84l7.72-3.91v-1.06c0-3.82.38-6.76.99-9.01.54-1.97,1.26-3.4,2.07-4.47.71-.94,1.5-1.62,2.37-2.16.76-.47,1.6-.83,2.5-1.11,1.57-.5,3.33-.78,5.12-1.09,1.35-.23,2.72-.49,4.06-.93,1.01-.33,2-.77,2.92-1.4.69-.47,1.34-1.05,1.91-1.75.85-1.05,1.52-2.36,1.95-3.93.36-1.31.57-2.8.64-4.52.28-.15.55-.3.82-.47,1.32-.79,2.56-1.75,3.67-2.9,1.67-1.73,3.03-3.92,3.94-6.63.92-2.7,1.41-5.91,1.41-9.75h-3.46ZM261.51,295.72l-3.9-1.97c-.07-3.55-.45-6.46-1.12-8.86-.64-2.31-1.56-4.18-2.69-5.66-.99-1.3-2.14-2.29-3.36-3.04-2.14-1.31-4.44-1.88-6.6-2.3-1.62-.31-3.17-.54-4.54-.86-1.03-.24-1.95-.53-2.73-.92-.59-.29-1.1-.63-1.54-1.06-.67-.64-1.23-1.46-1.65-2.71-.24-.7-.42-1.53-.54-2.52,2.87,1.02,5.9,1.63,8.87,2.2,2.66.5,5.27.97,7.65,1.6,1.79.48,3.45,1.05,4.91,1.8,1.1.56,2.08,1.21,2.95,1.98,1.3,1.16,2.34,2.6,3.1,4.54.75,1.94,1.2,4.39,1.2,7.54v10.25ZM268.86,302.9v6.49l-3.89-1.97v-21.95c0-4.09-.69-7.39-1.98-10.05-1.13-2.33-2.72-4.14-4.57-5.51-1.62-1.2-3.43-2.08-5.32-2.76-3.32-1.19-6.92-1.82-10.43-2.48-2.63-.5-5.22-1.01-7.58-1.75-1.77-.55-3.41-1.23-4.87-2.11-1.09-.66-2.08-1.42-2.96-2.33-1.31-1.37-2.39-3.08-3.17-5.35-.02-.05-.03-.11-.05-.16.95.64,2,1.19,3.12,1.66,1.82.77,3.83,1.36,5.98,1.88,3.75.91,7.91,1.59,12.02,2.45,3.08.64,6.14,1.38,8.97,2.37,2.12.74,4.11,1.61,5.88,2.67,2.66,1.59,4.84,3.58,6.38,6.21.77,1.32,1.38,2.8,1.81,4.5.42,1.7.66,3.62.66,5.79v22.39ZM307.56,268.97c-.49,1.14-1.09,1.86-1.82,2.44-.65.5-1.42.87-2.33,1.17-1.59.53-3.58.79-5.7,1.18-1.59.29-3.26.67-4.9,1.36-1.23.52-2.44,1.23-3.53,2.22-.82.74-1.58,1.63-2.24,2.68-.99,1.59-1.77,3.54-2.3,5.93-.47,2.14-.74,4.65-.8,7.61l-4.27,2.16v-10.24c0-3.71.63-6.46,1.64-8.54.89-1.82,2.07-3.16,3.52-4.24,1.27-.94,2.77-1.68,4.44-2.28,2.92-1.06,6.36-1.67,9.9-2.34,2.65-.5,5.36-1.03,7.97-1.85.41-.13.81-.26,1.21-.41-.16,1.3-.43,2.34-.77,3.15ZM316.64,254.31c-.91,2.14-2.12,3.73-3.59,5-1.28,1.11-2.77,1.98-4.42,2.69-2.89,1.24-6.3,1.95-9.81,2.62-2.63.5-5.32.97-7.9,1.66-1.94.52-3.82,1.16-5.58,2.05-1.32.67-2.56,1.48-3.68,2.48-1.69,1.5-3.08,3.44-4.02,5.87-.94,2.43-1.44,5.32-1.44,8.79v21.95l-3.89,1.97v-28.88c0-3.84.73-6.86,1.94-9.32,1.07-2.15,2.52-3.89,4.3-5.36,1.55-1.28,3.36-2.34,5.35-3.24,3.47-1.58,7.5-2.63,11.58-3.5,3.07-.65,6.17-1.2,9.12-1.81,2.21-.45,4.34-.94,6.31-1.54,1.48-.45,2.87-.96,4.15-1.58.73-.35,1.42-.74,2.07-1.18-.15.46-.32.91-.5,1.33Z"/>
    <g>
      <path class="st1" d="M334.04,268.05h23.24v4h-18.01v5.88h17.09v3.97h-17.09v8.96h-5.23v-22.8Z"/>
      <path class="st1" d="M389.92,270.07c.96,1.06,1.47,2.53,1.67,4.82.1,1.06.14,2.29.14,4.82,0,5.71-.55,7.9-2.29,9.43-1.26,1.09-2.97,1.64-5.84,1.81-1.09.07-5.23.14-8.41.14-6.97,0-8.85-.21-10.8-1.26-1.5-.82-2.5-2.39-2.8-4.65-.21-1.5-.27-2.73-.27-6.46,0-5.33.51-7.45,2.15-8.89,1.23-1.09,2.84-1.61,5.78-1.85,1.16-.1,4.58-.17,8.75-.17,8.07,0,10.22.41,11.93,2.26ZM366.68,279.47c0,4.44.34,5.88,1.61,6.53,1.26.68,2.36.79,8.89.79,5.88,0,7.35-.24,8.27-1.26.79-.85,1.03-2.32,1.03-6.19,0-7.14-.07-7.21-9.91-7.21s-9.88.1-9.88,7.35ZM372.86,264.05l8.92-3.45,1.2,3.52-9.3,2.02-.82-2.08Z"/>
      <path class="st1" d="M397.26,268.05h19.31c4,0,5.81.48,7.04,1.81.99,1.09,1.47,2.87,1.47,5.47s-.31,3.9-.99,4.75-1.5,1.27-2.87,1.5c2.87.24,3.52,1.13,3.49,4.75v4.51h-5.3v-3.42c-.07-3.11-.79-3.73-4.24-3.69h-12.68v7.11h-5.23v-22.8ZM415,279.54c3.83,0,4.79-.68,4.79-3.42,0-3.14-.79-3.79-4.68-3.79h-12.61v7.21h12.51Z"/>
      <path class="st1" d="M430.68,268.05h8.13l10.73,17.16,10.7-17.16h8.03v22.8h-5.16l.21-18.77-11.79,18.77h-4.14l-11.72-18.77.14,18.77h-5.13v-22.8Z"/>
      <path class="st1" d="M502.55,268.05v14.36c0,4.34-.68,6.12-2.87,7.35-1.95,1.13-3.9,1.33-11.96,1.33s-10.29-.48-11.96-2.36c-1.16-1.33-1.5-2.91-1.5-7.11v-13.57h5.26v11.93q0,3.04.17,4c.38,2.43,1.71,2.87,8.54,2.87,3.08,0,5.91-.14,6.7-.34,1.33-.34,2.05-1.16,2.26-2.6q.07-.41.1-3.59v-12.27h5.26Z"/>
      <path class="st1" d="M508.46,268.05h5.26v18.53h16.65v4.27h-21.91v-22.8Z"/>
      <path class="st1" d="M541.54,286.34l-2.53,4.51h-5.91l13.06-22.8h7.14l12.85,22.8h-5.74l-2.6-4.51h-16.27ZM549.67,271.74l-6.12,10.9h12.3l-6.19-10.9Z"/>
      <path class="st1" d="M577.59,268.05h18.94c4.34,0,7.14.82,8.68,2.5,1.4,1.57,1.95,4.14,1.95,9.16s-.65,7.59-2.39,9.19c-1.44,1.33-3.86,1.95-7.69,1.95h-19.48v-22.8ZM595.91,286.68c1.85,0,3.11-.24,4.03-.75,1.33-.72,1.88-2.46,1.88-5.98,0-6.32-.99-7.59-5.91-7.59h-13.06v14.32h13.06Z"/>
      <path class="st1" d="M640.78,270.07c.96,1.06,1.47,2.53,1.67,4.82.1,1.06.14,2.29.14,4.82,0,5.71-.55,7.9-2.29,9.43-1.26,1.09-2.97,1.64-5.84,1.81-1.09.07-5.23.14-8.41.14-6.97,0-8.85-.21-10.8-1.26-1.5-.82-2.5-2.39-2.8-4.65-.21-1.5-.27-2.73-.27-6.46,0-5.33.51-7.45,2.15-8.89,1.23-1.09,2.84-1.61,5.78-1.85,1.16-.1,4.58-.17,8.75-.17,8.07,0,10.22.41,11.93,2.26ZM617.54,279.47c0,4.44.34,5.88,1.61,6.53,1.26.68,2.36.79,8.89.79,5.88,0,7.35-.24,8.27-1.26.79-.85,1.03-2.32,1.03-6.19,0-7.14-.07-7.21-9.91-7.21s-9.88.1-9.88,7.35Z"/>
      <path class="st1" d="M656.67,268.05h19.65c5.71,0,7.69,1.57,7.69,6.08,0,2.94-.89,4.34-3.04,4.82,2.77.38,3.9,1.91,3.9,5.33,0,4.72-2.12,6.56-7.55,6.56h-20.64v-22.8ZM674.27,277.42c2.12,0,2.91-.1,3.49-.41.65-.38.99-1.13.99-2.19,0-1.16-.38-1.98-1.09-2.36-.51-.31-1.33-.44-2.87-.44h-12.95v5.4h12.44ZM675.4,286.89c3.18,0,4.14-.68,4.14-2.97,0-1.2-.38-2.08-1.06-2.5-.55-.31-1.54-.44-3.42-.44h-13.23v5.91h13.57Z"/>
      <path class="st1" d="M718.35,270.07c.96,1.06,1.47,2.53,1.67,4.82.1,1.06.14,2.29.14,4.82,0,5.71-.55,7.9-2.29,9.43-1.26,1.09-2.97,1.64-5.84,1.81-1.09.07-5.23.14-8.41.14-6.97,0-8.85-.21-10.8-1.26-1.5-.82-2.5-2.39-2.8-4.65-.21-1.5-.27-2.73-.27-6.46,0-5.33.51-7.45,2.15-8.89,1.23-1.09,2.84-1.61,5.78-1.85,1.16-.1,4.58-.17,8.75-.17,8.07,0,10.22.41,11.93,2.26ZM695.11,279.47c0,4.44.34,5.88,1.61,6.53,1.26.68,2.36.79,8.89.79,5.88,0,7.35-.24,8.27-1.26.79-.85,1.03-2.32,1.03-6.19,0-7.14-.07-7.21-9.91-7.21s-9.88.1-9.88,7.35Z"/>
      <path class="st1" d="M725.7,268.05h5.26v22.8h-5.26v-22.8Z"/>
    </g>
  </g>
</svg>