<?xml version="1.0" encoding="UTF-8"?>
<svg id="Layer_1" xmlns="http://www.w3.org/2000/svg" version="1.1" viewBox="200 150 560 260">
  <!-- Generator: Adobe Illustrator 30.1.0, SVG Export Plug-In . SVG Version: 2.1.1 Build 136)  -->
  <defs>
    <style>
      .st0 {
        fill: #a78343;
      }
    </style>
  </defs>
  <path class="st0" d="M541.85,207.95c0,1.27-.21,2.32-.57,3.24-.34.86-.82,1.62-1.45,2.32-1.19,1.32-2.98,2.47-5.3,3.45-2.02.85-4.43,1.57-7.07,2.21-4.63,1.12-10,2.01-15.45,3.15-4.09.86-8.24,1.85-12.19,3.23-2.96,1.03-5.82,2.28-8.45,3.85-3.95,2.35-7.41,5.47-9.85,9.63-.59,1-1.11,2.07-1.58,3.19-.23-.57-.48-1.12-.75-1.66-1.68-3.4-4.02-6.17-6.75-8.42-2.39-1.97-5.08-3.54-7.93-4.83-5-2.26-10.51-3.69-15.94-4.85-4.08-.87-8.12-1.58-11.86-2.35-2.81-.58-5.44-1.18-7.79-1.89-1.76-.53-3.35-1.12-4.72-1.79-1.03-.5-1.94-1.04-2.7-1.62-1.15-.87-1.99-1.82-2.56-2.91-.57-1.09-.89-2.35-.9-3.96h-4.49c0,5.87.89,10.61,2.53,14.47,1.43,3.37,3.45,6.05,5.84,8.12,1.37,1.19,2.85,2.18,4.41,3.02.12,3.17.63,5.75,1.55,7.89.91,2.13,2.24,3.79,3.8,4.98,1.37,1.05,2.88,1.75,4.41,2.25,2.68.88,5.47,1.24,8.1,1.74,1.97.37,3.84.82,5.51,1.53,1.25.54,2.39,1.21,3.42,2.13.77.69,1.49,1.51,2.14,2.55.98,1.55,1.83,3.58,2.44,6.29.6,2.71.96,6.09.96,10.29v1.38l9.53,4.8v12.76l11.78,5.96,11.76-5.95v-12.77l10.01-5.07v-1.38c0-4.95.49-8.77,1.29-11.68.7-2.55,1.63-4.4,2.69-5.8.92-1.22,1.95-2.1,3.08-2.8.99-.61,2.07-1.07,3.24-1.45,2.04-.65,4.32-1.01,6.65-1.41,1.75-.3,3.53-.64,5.27-1.21,1.3-.43,2.59-1,3.79-1.82.9-.61,1.74-1.37,2.47-2.27,1.11-1.36,1.97-3.06,2.53-5.09.47-1.7.74-3.63.83-5.87.36-.19.72-.39,1.07-.61,1.71-1.03,3.32-2.27,4.76-3.77,2.16-2.25,3.93-5.09,5.12-8.6,1.19-3.51,1.83-7.67,1.83-12.65h-4.49ZM468.18,274.38l-5.06-2.55c-.09-4.6-.59-8.38-1.45-11.5-.84-3-2.02-5.42-3.48-7.34-1.28-1.68-2.78-2.97-4.36-3.94-2.78-1.7-5.76-2.44-8.56-2.98-2.1-.4-4.11-.7-5.89-1.12-1.33-.31-2.53-.69-3.54-1.2-.76-.38-1.42-.82-2-1.37-.87-.83-1.59-1.9-2.15-3.52-.31-.9-.55-1.99-.7-3.27,3.72,1.32,7.65,2.12,11.5,2.85,3.45.65,6.83,1.25,9.92,2.08,2.32.62,4.47,1.37,6.36,2.33,1.42.72,2.7,1.56,3.82,2.57,1.68,1.51,3.04,3.37,4.01,5.89.97,2.51,1.56,5.7,1.56,9.78v13.29ZM477.7,283.69v8.42l-5.04-2.55v-28.47c0-5.31-.9-9.58-2.57-13.03-1.46-3.02-3.53-5.37-5.93-7.14-2.1-1.56-4.45-2.69-6.91-3.58-4.3-1.55-8.97-2.36-13.53-3.22-3.42-.64-6.77-1.31-9.83-2.27-2.3-.72-4.43-1.6-6.32-2.73-1.42-.85-2.7-1.84-3.84-3.03-1.7-1.78-3.1-4-4.11-6.93-.02-.07-.04-.14-.07-.21,1.23.83,2.59,1.54,4.05,2.15,2.36.99,4.97,1.76,7.76,2.44,4.87,1.18,10.26,2.07,15.59,3.18,4,.83,7.97,1.8,11.63,3.07,2.75.96,5.33,2.09,7.63,3.46,3.46,2.07,6.28,4.64,8.28,8.05,1,1.71,1.79,3.63,2.35,5.83.55,2.2.86,4.69.86,7.52v29.04ZM527.91,239.68c-.63,1.48-1.41,2.42-2.36,3.16-.84.65-1.84,1.13-3.02,1.52-2.06.69-4.65,1.03-7.4,1.53-2.06.38-4.23.87-6.35,1.77-1.59.68-3.16,1.6-4.58,2.87-1.07.96-2.05,2.11-2.91,3.48-1.29,2.06-2.3,4.59-2.98,7.69-.61,2.78-.97,6.03-1.04,9.87l-5.54,2.8v-13.29c0-4.81.81-8.38,2.12-11.07,1.15-2.36,2.68-4.1,4.57-5.5,1.65-1.23,3.59-2.18,5.75-2.96,3.79-1.37,8.25-2.17,12.84-3.03,3.44-.65,6.96-1.34,10.34-2.4.53-.17,1.05-.34,1.57-.53-.2,1.69-.56,3.03-1,4.08ZM539.68,220.66c-1.18,2.77-2.76,4.84-4.66,6.49-1.66,1.44-3.59,2.57-5.74,3.49-3.75,1.61-8.17,2.54-12.72,3.39-3.41.65-6.9,1.26-10.25,2.16-2.51.67-4.96,1.51-7.24,2.67-1.71.87-3.32,1.92-4.78,3.22-2.19,1.95-3.99,4.46-5.21,7.61-1.22,3.15-1.86,6.9-1.86,11.4v28.47l-5.04,2.55v-37.46c0-4.97.94-8.9,2.52-12.09,1.39-2.79,3.27-5.05,5.58-6.95,2.02-1.66,4.36-3.04,6.93-4.21,4.51-2.04,9.72-3.42,15.03-4.54,3.98-.85,8-1.56,11.83-2.34,2.87-.59,5.63-1.22,8.19-1.99,1.92-.58,3.72-1.24,5.38-2.05.95-.46,1.84-.96,2.68-1.53-.2.6-.41,1.18-.65,1.72Z"/>
  <g>
    <path class="st0" d="M281.52,320.71h23.24v4h-18.01v5.88h17.09v3.96h-17.09v8.96h-5.23v-22.8Z"/>
    <path class="st0" d="M337.4,322.73c.96,1.06,1.47,2.53,1.67,4.82.1,1.06.14,2.29.14,4.82,0,5.71-.55,7.9-2.29,9.43-1.26,1.09-2.97,1.64-5.84,1.81-1.09.07-5.23.14-8.41.14-6.97,0-8.85-.21-10.8-1.26-1.5-.82-2.5-2.39-2.8-4.65-.21-1.5-.27-2.73-.27-6.46,0-5.33.51-7.45,2.15-8.89,1.23-1.09,2.84-1.61,5.78-1.85,1.16-.1,4.58-.17,8.75-.17,8.07,0,10.22.41,11.93,2.26ZM314.16,332.13c0,4.44.34,5.88,1.61,6.53,1.26.68,2.36.79,8.89.79,5.88,0,7.35-.24,8.27-1.26.79-.85,1.03-2.32,1.03-6.19,0-7.14-.07-7.21-9.91-7.21s-9.88.1-9.88,7.35ZM320.35,316.71l8.92-3.45,1.2,3.52-9.3,2.02-.82-2.08Z"/>
    <path class="st0" d="M344.74,320.71h19.31c4,0,5.81.48,7.04,1.81.99,1.09,1.47,2.87,1.47,5.47s-.31,3.9-.99,4.75-1.5,1.26-2.87,1.5c2.87.24,3.52,1.13,3.49,4.75v4.51h-5.3v-3.42c-.07-3.11-.79-3.73-4.24-3.69h-12.68v7.11h-5.23v-22.8ZM362.48,332.2c3.83,0,4.79-.68,4.79-3.42,0-3.14-.79-3.79-4.68-3.79h-12.61v7.21h12.51Z"/>
    <path class="st0" d="M378.16,320.71h8.13l10.73,17.16,10.7-17.16h8.03v22.8h-5.16l.21-18.76-11.79,18.76h-4.14l-11.72-18.76.14,18.76h-5.13v-22.8Z"/>
    <path class="st0" d="M450.04,320.71v14.36c0,4.34-.68,6.12-2.87,7.35-1.95,1.13-3.9,1.33-11.96,1.33s-10.29-.48-11.96-2.36c-1.16-1.33-1.5-2.91-1.5-7.11v-13.57h5.26v11.93q0,3.04.17,4c.38,2.43,1.71,2.87,8.54,2.87,3.08,0,5.91-.14,6.7-.34,1.33-.34,2.05-1.16,2.26-2.6q.07-.41.1-3.59v-12.27h5.26Z"/>
    <path class="st0" d="M455.94,320.71h5.26v18.53h16.65v4.27h-21.91v-22.8Z"/>
    <path class="st0" d="M489.02,339l-2.53,4.51h-5.91l13.06-22.8h7.14l12.85,22.8h-5.74l-2.6-4.51h-16.27ZM497.16,324.4l-6.12,10.9h12.3l-6.19-10.9Z"/>
    <path class="st0" d="M525.07,320.71h18.94c4.34,0,7.14.82,8.68,2.5,1.4,1.57,1.95,4.14,1.95,9.16s-.65,7.59-2.39,9.19c-1.44,1.33-3.86,1.95-7.69,1.95h-19.48v-22.8ZM543.39,339.34c1.85,0,3.11-.24,4.03-.75,1.33-.72,1.88-2.46,1.88-5.98,0-6.32-.99-7.59-5.91-7.59h-13.06v14.32h13.06Z"/>
    <path class="st0" d="M588.26,322.73c.96,1.06,1.47,2.53,1.67,4.82.1,1.06.14,2.29.14,4.82,0,5.71-.55,7.9-2.29,9.43-1.26,1.09-2.97,1.64-5.84,1.81-1.09.07-5.23.14-8.41.14-6.97,0-8.85-.21-10.8-1.26-1.5-.82-2.5-2.39-2.8-4.65-.21-1.5-.27-2.73-.27-6.46,0-5.33.51-7.45,2.15-8.89,1.23-1.09,2.84-1.61,5.78-1.85,1.16-.1,4.58-.17,8.75-.17,8.07,0,10.22.41,11.93,2.26ZM565.02,332.13c0,4.44.34,5.88,1.61,6.53,1.26.68,2.36.79,8.89.79,5.88,0,7.35-.24,8.27-1.26.79-.85,1.03-2.32,1.03-6.19,0-7.14-.07-7.21-9.91-7.21s-9.88.1-9.88,7.35Z"/>
    <path class="st0" d="M604.15,320.71h19.65c5.71,0,7.69,1.57,7.69,6.08,0,2.94-.89,4.34-3.04,4.82,2.77.38,3.9,1.91,3.9,5.33,0,4.72-2.12,6.56-7.55,6.56h-20.64v-22.8ZM621.75,330.08c2.12,0,2.91-.1,3.49-.41.65-.38.99-1.13.99-2.19,0-1.16-.38-1.98-1.09-2.36-.51-.31-1.33-.44-2.87-.44h-12.95v5.4h12.44ZM622.88,339.55c3.18,0,4.14-.68,4.14-2.97,0-1.2-.38-2.08-1.06-2.5-.55-.31-1.54-.44-3.42-.44h-13.23v5.91h13.57Z"/>
    <path class="st0" d="M665.84,322.73c.96,1.06,1.47,2.53,1.67,4.82.1,1.06.14,2.29.14,4.82,0,5.71-.55,7.9-2.29,9.43-1.26,1.09-2.97,1.64-5.84,1.81-1.09.07-5.23.14-8.41.14-6.97,0-8.85-.21-10.8-1.26-1.5-.82-2.5-2.39-2.8-4.65-.21-1.5-.27-2.73-.27-6.46,0-5.33.51-7.45,2.15-8.89,1.23-1.09,2.84-1.61,5.78-1.85,1.16-.1,4.58-.17,8.75-.17,8.07,0,10.22.41,11.93,2.26ZM642.59,332.13c0,4.44.34,5.88,1.61,6.53,1.26.68,2.36.79,8.89.79,5.88,0,7.35-.24,8.27-1.26.79-.85,1.03-2.32,1.03-6.19,0-7.14-.07-7.21-9.91-7.21s-9.88.1-9.88,7.35Z"/>
    <path class="st0" d="M673.18,320.71h5.26v22.8h-5.26v-22.8Z"/>
  </g>
</svg>