<svg xmlns="http://www.w3.org/2000/svg" width="150" height="133" viewBox="0 0 150 133">
<path d="M 112 60 L 111 59 L 98 62 L 93 68 L 93 77 L 96 68 L 101 63 Z" fill="rgb(0,0,0)" fill-rule="evenodd"/>
<path d="M 57 60 L 68 63 L 74 69 L 76 75 L 76 67 L 71 62 L 65 60 Z" fill="rgb(0,0,0)" fill-rule="evenodd"/>
<path d="M 53 51 L 60 55 L 72 57 L 80 64 L 82 88 L 82 64 L 79 59 L 70 54 Z" fill="rgb(0,0,0)" fill-rule="evenodd"/>
<path d="M 117 50 L 96 55 L 89 60 L 87 64 L 87 88 L 88 67 L 90 63 L 97 57 L 112 54 Z" fill="rgb(0,0,0)" fill-rule="evenodd"/>
<path d="M 76 0 L 75 2 L 67 3 L 51 10 L 36 23 L 31 30 L 24 46 L 22 55 L 22 71 L 26 86 L 31 96 L 44 111 L 51 116 L 67 123 L 76 125 L 92 125 L 107 121 L 117 116 L 132 103 L 137 96 L 144 80 L 146 71 L 146 55 L 142 40 L 137 30 L 124 15 L 107 5 L 93 2 L 92 0 Z M 44 41 L 47 40 L 50 44 L 54 46 L 74 50 L 84 58 L 95 50 L 117 45 L 121 41 L 125 42 L 125 48 L 113 66 L 105 67 L 100 71 L 99 80 L 93 85 L 93 91 L 87 95 L 82 95 L 77 91 L 76 85 L 71 80 L 70 72 L 66 68 L 57 66 L 53 63 L 51 57 L 44 48 Z" fill="rgb(0,0,0)" fill-rule="evenodd"/>
<path d="M 45 42 L 46 48 L 53 57 L 54 61 L 57 64 L 66 66 L 70 69 L 72 73 L 72 80 L 78 84 L 78 90 L 84 94 L 91 90 L 91 84 L 97 80 L 98 71 L 103 66 L 110 65 L 115 62 L 116 57 L 121 52 L 124 45 L 123 41 L 117 47 L 97 51 L 91 54 L 86 59 L 83 59 L 81 56 L 72 51 L 55 48 L 50 46 L 46 41 Z M 112 58 L 113 61 L 111 63 L 103 64 L 97 69 L 96 76 L 94 79 L 92 79 L 92 66 L 99 60 Z M 56 59 L 63 58 L 72 61 L 78 68 L 78 78 L 74 78 L 73 71 L 68 65 L 58 63 Z M 117 49 L 118 52 L 116 54 L 99 58 L 91 64 L 89 71 L 89 89 L 86 90 L 85 67 L 88 59 L 94 54 Z M 52 49 L 75 54 L 81 59 L 84 66 L 83 90 L 80 89 L 80 71 L 78 64 L 70 58 L 53 54 L 51 52 Z" fill="rgb(142,118,72)" fill-rule="evenodd"/>
</svg>