<svg xmlns="http://www.w3.org/2000/svg" width="408" height="131" viewBox="0 0 408 131">
<path d="M 340 90 L 340 105 Z" fill="rgb(14,14,14)" fill-rule="evenodd"/>
<path d="M 314 92 L 315 104 L 329 105 L 333 103 L 333 92 L 331 90 L 317 90 Z M 316 94 L 318 92 L 329 92 L 331 94 L 331 101 L 329 103 L 318 103 L 316 101 Z" fill="rgb(14,14,14)" fill-rule="evenodd"/>
<path d="M 291 91 L 292 105 L 305 105 L 309 103 L 308 92 L 306 90 Z M 294 99 L 305 98 L 306 102 L 295 103 Z M 293 93 L 295 91 L 303 91 L 305 96 L 295 97 Z" fill="rgb(14,14,14)" fill-rule="evenodd"/>
<path d="M 260 92 L 261 104 L 275 105 L 279 103 L 279 92 L 277 90 L 262 90 Z M 262 94 L 264 92 L 275 92 L 277 94 L 277 101 L 275 103 L 264 103 L 262 101 Z" fill="rgb(14,14,14)" fill-rule="evenodd"/>
<path d="M 235 91 L 236 105 L 249 105 L 254 103 L 253 91 Z M 238 94 L 240 92 L 250 92 L 252 94 L 252 101 L 250 103 L 240 103 L 238 101 Z" fill="rgb(14,14,14)" fill-rule="evenodd"/>
<path d="M 205 104 L 207 105 L 210 101 L 220 101 L 224 105 L 225 103 L 218 91 L 213 90 Z M 213 94 L 216 93 L 219 99 L 213 100 Z" fill="rgb(14,14,14)" fill-rule="evenodd"/>
<path d="M 188 90 L 187 104 L 200 105 L 200 103 L 191 103 L 189 101 Z" fill="rgb(14,14,14)" fill-rule="evenodd"/>
<path d="M 163 91 L 163 102 L 165 104 L 178 105 L 181 103 L 180 90 L 179 101 L 177 103 L 168 103 L 165 100 L 165 91 Z" fill="rgb(14,14,14)" fill-rule="evenodd"/>
<path d="M 133 91 L 134 105 L 136 95 L 139 96 L 145 105 L 150 98 L 154 96 L 155 104 L 157 104 L 156 90 L 152 91 L 146 101 L 143 100 L 137 90 Z" fill="rgb(14,14,14)" fill-rule="evenodd"/>
<path d="M 109 91 L 110 105 L 113 100 L 123 100 L 125 104 L 127 104 L 127 92 L 125 90 Z M 111 94 L 113 92 L 123 92 L 125 96 L 123 98 L 113 98 Z" fill="rgb(14,14,14)" fill-rule="evenodd"/>
<path d="M 79 90 L 65 91 L 66 105 L 69 98 L 78 98 L 69 97 L 67 93 L 69 91 Z" fill="rgb(14,14,14)" fill-rule="evenodd"/>
<path d="M 96 86 L 94 86 L 93 90 L 87 90 L 84 94 L 84 101 L 88 105 L 100 105 L 104 102 L 104 93 L 101 90 L 96 90 Z M 86 95 L 89 92 L 100 92 L 102 94 L 102 100 L 99 103 L 89 103 L 86 100 Z" fill="rgb(14,14,14)" fill-rule="evenodd"/>
<path d="M 157 12 L 159 21 L 166 29 L 167 34 L 171 38 L 181 40 L 187 45 L 189 56 L 195 61 L 195 68 L 201 72 L 205 72 L 211 68 L 211 61 L 218 56 L 218 48 L 220 44 L 225 40 L 235 38 L 239 34 L 240 29 L 246 23 L 249 14 L 248 11 L 241 18 L 217 23 L 202 33 L 197 27 L 189 23 L 168 19 L 162 16 L 158 11 Z M 236 30 L 237 33 L 233 37 L 222 39 L 218 43 L 216 54 L 212 56 L 212 39 L 220 33 Z M 169 31 L 174 30 L 190 35 L 195 41 L 195 55 L 191 55 L 190 47 L 184 39 L 173 37 Z M 243 19 L 244 22 L 240 26 L 217 32 L 212 36 L 209 43 L 209 67 L 205 69 L 204 38 L 207 32 L 217 25 Z M 163 19 L 189 25 L 199 32 L 202 38 L 201 69 L 197 67 L 197 42 L 195 37 L 189 32 L 166 26 L 162 22 Z" fill="rgb(157,131,83)" fill-rule="evenodd"/>
</svg>