<?xml version="1.0" encoding="UTF-8"?>
<svg id="Layer_1" xmlns="http://www.w3.org/2000/svg" version="1.1" viewBox="350 150 300 300">
  <defs>
    <style>
      .st0 {
        fill: #a78343;
      }
    </style>
  </defs>
  <path class="st0" d="M591.16,199.04c0,2.28-.37,4.16-1.02,5.81-.61,1.55-1.47,2.9-2.61,4.17-2.13,2.38-5.35,4.44-9.51,6.19-3.63,1.53-7.95,2.82-12.7,3.98-8.32,2.02-17.95,3.62-27.75,5.66-7.35,1.54-14.79,3.33-21.89,5.79-5.32,1.85-10.45,4.09-15.18,6.91-7.09,4.22-13.31,9.82-17.69,17.3-1.06,1.8-2,3.72-2.83,5.73-.42-1.02-.86-2.02-1.34-2.98-3.02-6.1-7.21-11.08-12.11-15.11-4.29-3.53-9.12-6.35-14.25-8.67-8.97-4.06-18.86-6.62-28.63-8.7-7.32-1.56-14.58-2.84-21.3-4.22-5.04-1.03-9.77-2.12-13.98-3.4-3.16-.96-6.02-2.02-8.48-3.21-1.85-.9-3.47-1.87-4.85-2.91-2.07-1.57-3.58-3.27-4.6-5.22-1.02-1.96-1.6-4.21-1.61-7.11h-8.05c0,10.54,1.59,19.05,4.54,25.98,2.57,6.06,6.2,10.87,10.49,14.58,2.46,2.14,5.13,3.91,7.92,5.42.21,5.7,1.14,10.33,2.78,14.17,1.63,3.83,4.02,6.81,6.83,8.95,2.45,1.88,5.16,3.13,7.91,4.05,4.82,1.59,9.82,2.22,14.54,3.13,3.54.67,6.9,1.47,9.89,2.75,2.25.96,4.29,2.17,6.13,3.82,1.39,1.24,2.67,2.72,3.85,4.58,1.76,2.78,3.29,6.43,4.37,11.3,1.09,4.87,1.72,10.94,1.72,18.48v2.48l17.11,8.63v22.91l21.15,10.7,21.12-10.68v-22.93l17.98-9.1v-2.48c0-8.89.87-15.75,2.31-20.98,1.26-4.58,2.93-7.91,4.82-10.41,1.66-2.19,3.49-3.77,5.53-5.03,1.78-1.09,3.72-1.93,5.81-2.59,3.65-1.17,7.75-1.81,11.94-2.53,3.14-.55,6.34-1.14,9.47-2.17,2.34-.77,4.65-1.8,6.8-3.27,1.61-1.1,3.12-2.45,4.44-4.08,1.99-2.45,3.53-5.49,4.54-9.15.85-3.04,1.34-6.53,1.48-10.54.65-.35,1.29-.71,1.92-1.09,3.08-1.85,5.97-4.07,8.55-6.76,3.88-4.04,7.05-9.14,9.19-15.43,2.14-6.3,3.29-13.77,3.29-22.71h-8.05ZM458.87,318.33l-9.08-4.58c-.15-8.26-1.05-15.04-2.61-20.65-1.5-5.39-3.62-9.73-6.26-13.18-2.3-3.02-4.98-5.33-7.82-7.07-4.98-3.05-10.34-4.38-15.36-5.36-3.77-.73-7.38-1.25-10.57-2-2.39-.56-4.54-1.24-6.36-2.15-1.37-.68-2.55-1.48-3.6-2.46-1.56-1.48-2.86-3.41-3.85-6.32-.55-1.62-.98-3.57-1.26-5.87,6.69,2.37,13.74,3.8,20.66,5.12,6.19,1.17,12.27,2.25,17.82,3.74,4.16,1.11,8.03,2.46,11.43,4.19,2.55,1.3,4.85,2.81,6.86,4.61,3.02,2.71,5.45,6.05,7.21,10.57,1.75,4.51,2.8,10.24,2.8,17.56v23.87ZM475.97,335.04v15.12l-9.05-4.58v-51.11c0-9.53-1.61-17.2-4.62-23.4-2.63-5.42-6.33-9.63-10.65-12.82-3.77-2.8-7.98-4.84-12.4-6.43-7.73-2.78-16.11-4.24-24.3-5.79-6.14-1.16-12.16-2.35-17.66-4.07-4.13-1.29-7.95-2.87-11.34-4.91-2.54-1.53-4.85-3.31-6.89-5.44-3.06-3.2-5.57-7.18-7.37-12.45-.04-.12-.08-.26-.12-.38,2.21,1.49,4.65,2.76,7.26,3.86,4.23,1.79,8.93,3.17,13.93,4.38,8.74,2.12,18.42,3.71,28,5.72,7.18,1.5,14.31,3.22,20.89,5.52,4.94,1.72,9.56,3.75,13.7,6.22,6.21,3.71,11.28,8.34,14.86,14.45,1.79,3.06,3.22,6.52,4.21,10.48.99,3.96,1.54,8.43,1.54,13.5v52.15ZM566.12,256.02c-1.13,2.65-2.53,4.34-4.25,5.67-1.5,1.16-3.3,2.03-5.43,2.73-3.71,1.23-8.34,1.84-13.28,2.74-3.7.69-7.59,1.55-11.41,3.17-2.86,1.21-5.67,2.87-8.23,5.16-1.92,1.72-3.69,3.79-5.23,6.25-2.32,3.69-4.12,8.23-5.35,13.82-1.1,4.99-1.73,10.83-1.86,17.72l-9.95,5.03v-23.86c0-8.64,1.46-15.04,3.81-19.88,2.07-4.24,4.81-7.35,8.2-9.88,2.96-2.2,6.44-3.92,10.33-5.32,6.8-2.46,14.82-3.9,23.06-5.45,6.18-1.17,12.5-2.4,18.57-4.3.95-.3,1.89-.61,2.82-.94-.36,3.04-1,5.44-1.8,7.33ZM587.26,221.87c-2.12,4.98-4.95,8.69-8.36,11.66-2.99,2.59-6.45,4.62-10.3,6.26-6.74,2.88-14.68,4.55-22.85,6.09-6.13,1.16-12.38,2.26-18.4,3.87-4.51,1.21-8.9,2.71-12.99,4.79-3.07,1.56-5.97,3.45-8.58,5.78-3.92,3.5-7.17,8.02-9.35,13.66-2.19,5.65-3.34,12.39-3.34,20.47v51.11l-9.05,4.58v-67.27c0-8.93,1.69-15.98,4.53-21.71,2.49-5.01,5.88-9.06,10.02-12.47,3.62-2.98,7.82-5.46,12.45-7.56,8.09-3.67,17.46-6.14,26.98-8.16,7.14-1.52,14.37-2.8,21.24-4.21,5.15-1.06,10.11-2.19,14.7-3.58,3.44-1.04,6.68-2.23,9.66-3.68,1.7-.82,3.31-1.73,4.81-2.75-.36,1.08-.74,2.11-1.16,3.09Z"/>
</svg>