<?xml version="1.0" encoding="UTF-8"?>
<svg xmlns="http://www.w3.org/2000/svg" viewBox="270 310 420 40">
<g fill="#A0792E">
<g>
    <path d="M281.52,320.71h23.24v4h-18.01v5.88h17.09v3.96h-17.09v8.96h-5.23v-22.8Z"></path>
    <path d="M337.4,322.73c.96,1.06,1.47,2.53,1.67,4.82.1,1.06.14,2.29.14,4.82,0,5.71-.55,7.9-2.29,9.43-1.26,1.09-2.97,1.64-5.84,1.81-1.09.07-5.23.14-8.41.14-6.97,0-8.85-.21-10.8-1.26-1.5-.82-2.5-2.39-2.8-4.65-.21-1.5-.27-2.73-.27-6.46,0-5.33.51-7.45,2.15-8.89,1.23-1.09,2.84-1.61,5.78-1.85,1.16-.1,4.58-.17,8.75-.17,8.07,0,10.22.41,11.93,2.26ZM314.16,332.13c0,4.44.34,5.88,1.61,6.53,1.26.68,2.36.79,8.89.79,5.88,0,7.35-.24,8.27-1.26.79-.85,1.03-2.32,1.03-6.19,0-7.14-.07-7.21-9.91-7.21s-9.88.1-9.88,7.35ZM320.35,316.71l8.92-3.45,1.2,3.52-9.3,2.02-.82-2.08Z"></path>
    <path d="M344.74,320.71h19.31c4,0,5.81.48,7.04,1.81.99,1.09,1.47,2.87,1.47,5.47s-.31,3.9-.99,4.75-1.5,1.26-2.87,1.5c2.87.24,3.52,1.13,3.49,4.75v4.51h-5.3v-3.42c-.07-3.11-.79-3.73-4.24-3.69h-12.68v7.11h-5.23v-22.8ZM362.48,332.2c3.83,0,4.79-.68,4.79-3.42,0-3.14-.79-3.79-4.68-3.79h-12.61v7.21h12.51Z"></path>
    <path d="M378.16,320.71h8.13l10.73,17.16,10.7-17.16h8.03v22.8h-5.16l.21-18.76-11.79,18.76h-4.14l-11.72-18.76.14,18.76h-5.13v-22.8Z"></path>
    <path d="M450.04,320.71v14.36c0,4.34-.68,6.12-2.87,7.35-1.95,1.13-3.9,1.33-11.96,1.33s-10.29-.48-11.96-2.36c-1.16-1.33-1.5-2.91-1.5-7.11v-13.57h5.26v11.93q0,3.04.17,4c.38,2.43,1.71,2.87,8.54,2.87,3.08,0,5.91-.14,6.7-.34,1.33-.34,2.05-1.16,2.26-2.6q.07-.41.1-3.59v-12.27h5.26Z"></path>
    <path d="M455.94,320.71h5.26v18.53h16.65v4.27h-21.91v-22.8Z"></path>
    <path d="M489.02,339l-2.53,4.51h-5.91l13.06-22.8h7.14l12.85,22.8h-5.74l-2.6-4.51h-16.27ZM497.16,324.4l-6.12,10.9h12.3l-6.19-10.9Z"></path>
    <path d="M525.07,320.71h18.94c4.34,0,7.14.82,8.68,2.5,1.4,1.57,1.95,4.14,1.95,9.16s-.65,7.59-2.39,9.19c-1.44,1.33-3.86,1.95-7.69,1.95h-19.48v-22.8ZM543.39,339.34c1.85,0,3.11-.24,4.03-.75,1.33-.72,1.88-2.46,1.88-5.98,0-6.32-.99-7.59-5.91-7.59h-13.06v14.32h13.06Z"></path>
    <path d="M588.26,322.73c.96,1.06,1.47,2.53,1.67,4.82.1,1.06.14,2.29.14,4.82,0,5.71-.55,7.9-2.29,9.43-1.26,1.09-2.97,1.64-5.84,1.81-1.09.07-5.23.14-8.41.14-6.97,0-8.85-.21-10.8-1.26-1.5-.82-2.5-2.39-2.8-4.65-.21-1.5-.27-2.73-.27-6.46,0-5.33.51-7.45,2.15-8.89,1.23-1.09,2.84-1.61,5.78-1.85,1.16-.1,4.58-.17,8.75-.17,8.07,0,10.22.41,11.93,2.26ZM565.02,332.13c0,4.44.34,5.88,1.61,6.53,1.26.68,2.36.79,8.89.79,5.88,0,7.35-.24,8.27-1.26.79-.85,1.03-2.32,1.03-6.19,0-7.14-.07-7.21-9.91-7.21s-9.88.1-9.88,7.35Z"></path>
    <path d="M604.15,320.71h19.65c5.71,0,7.69,1.57,7.69,6.08,0,2.94-.89,4.34-3.04,4.82,2.77.38,3.9,1.91,3.9,5.33,0,4.72-2.12,6.56-7.55,6.56h-20.64v-22.8ZM621.75,330.08c2.12,0,2.91-.1,3.49-.41.65-.38.99-1.13.99-2.19,0-1.16-.38-1.98-1.09-2.36-.51-.31-1.33-.44-2.87-.44h-12.95v5.4h12.44ZM622.88,339.55c3.18,0,4.14-.68,4.14-2.97,0-1.2-.38-2.08-1.06-2.5-.55-.31-1.54-.44-3.42-.44h-13.23v5.91h13.57Z"></path>
    <path d="M665.84,322.73c.96,1.06,1.47,2.53,1.67,4.82.1,1.06.14,2.29.14,4.82,0,5.71-.55,7.9-2.29,9.43-1.26,1.09-2.97,1.64-5.84,1.81-1.09.07-5.23.14-8.41.14-6.97,0-8.85-.21-10.8-1.26-1.5-.82-2.5-2.39-2.8-4.65-.21-1.5-.27-2.73-.27-6.46,0-5.33.51-7.45,2.15-8.89,1.23-1.09,2.84-1.61,5.78-1.85,1.16-.1,4.58-.17,8.75-.17,8.07,0,10.22.41,11.93,2.26ZM642.59,332.13c0,4.44.34,5.88,1.61,6.53,1.26.68,2.36.79,8.89.79,5.88,0,7.35-.24,8.27-1.26.79-.85,1.03-2.32,1.03-6.19,0-7.14-.07-7.21-9.91-7.21s-9.88.1-9.88,7.35Z"></path>
    <path d="M673.18,320.71h5.26v22.8h-5.26v-22.8Z"></path>
  </g>
</g>
</svg>